<svg width="61" height="55" viewBox="0 0 61 55" fill="none" xmlns="http://www.w3.org/2000/svg">
<path d="M8 20L27 1" stroke="#363A3B" stroke-width="2" stroke-linecap="round" stroke-linejoin="round"/>
<path d="M55 20L34 1" stroke="#363A3B" stroke-width="2" stroke-linecap="round" stroke-linejoin="round"/>
<path d="M56.5723 21.0342L51.8584 53.8076H8.64453L3.98438 21.0342H56.5723Z" fill="white"/>
<path d="M56.5723 21.0342L57.5621 21.1765L56.5723 20.0342V21.0342ZM51.8584 53.8076V54.8076L52.8482 53.95L51.8584 53.8076ZM8.64453 53.8076L7.65449 53.9484L8.64453 54.8076V53.8076ZM3.98438 21.0342V20.0342L2.99433 21.175L3.98438 21.0342ZM56.5723 21.0342L55.5825 20.8918L50.8686 53.6652L51.8584 53.8076L52.8482 53.95L57.5621 21.1765L56.5723 21.0342ZM51.8584 53.8076V52.8076H8.64453V53.8076V54.8076H51.8584V53.8076ZM8.64453 53.8076L9.63457 53.6668L4.97442 20.8934L3.98438 21.0342L2.99433 21.175L7.65449 53.9484L8.64453 53.8076ZM3.98438 21.0342V22.0342H56.5723V21.0342V20.0342H3.98438V21.0342Z" fill="#363A3B"/>
<path d="M60.001 20.4092L58.4121 25.2227H2.71973L1 20.4092H60.001Z" fill="white"/>
<path d="M60.001 20.4092L60.9506 20.7226L60.001 19.4092V20.4092ZM58.4121 25.2227V26.2227L59.3617 25.5361L58.4121 25.2227ZM2.71973 25.2227L1.77802 25.5591L2.71973 26.2227V25.2227ZM1 20.4092V19.4092L0.058297 20.7456L1 20.4092ZM60.001 20.4092L59.0514 20.0957L57.4625 24.9092L58.4121 25.2227L59.3617 25.5361L60.9506 20.7226L60.001 20.4092ZM58.4121 25.2227V24.2227H2.71973V25.2227V26.2227H58.4121V25.2227ZM2.71973 25.2227L3.66143 24.8862L1.9417 20.0727L1 20.4092L0.058297 20.7456L1.77802 25.5591L2.71973 25.2227ZM1 20.4092V21.4092H60.001V20.4092V19.4092H1V20.4092Z" fill="#363A3B"/>
<path d="M31 34L31 45" stroke="#363A3B" stroke-width="2" stroke-linecap="round" stroke-linejoin="bevel"/>
<path d="M18 34L20 45" stroke="#363A3B" stroke-width="2" stroke-linecap="round" stroke-linejoin="bevel"/>
<path d="M44 34L43 45" stroke="#363A3B" stroke-width="2" stroke-linecap="round" stroke-linejoin="bevel"/>
</svg>
