<svg width="72" height="66" viewBox="0 0 72 66" fill="none" xmlns="http://www.w3.org/2000/svg">
<circle cx="36.53" cy="36.675" r="25.0749" stroke="#FF2C68" stroke-width="4"/>
<path d="M36.5293 21.3325V35.7725L44.6518 43.8949" stroke="#FF2C68" stroke-width="4" stroke-linecap="round"/>
<path d="M8.51962 23.5849C5.45492 20.2724 2.32971 13.3044 9.14029 7.64198C15.9509 1.97956 22.0635 6.00214 24.5825 8.72466" stroke="#FF2C68" stroke-width="4" stroke-linecap="round"/>
<path d="M64.3241 23.5849C67.3888 20.2724 70.514 13.3044 63.7035 7.64198C56.8929 1.97956 50.7802 6.00214 48.2612 8.72466" stroke="#FF2C68" stroke-width="4" stroke-linecap="round"/>
<path d="M12.978 62.6414C12.2943 63.5089 12.4433 64.7664 13.3108 65.4502C14.1783 66.1339 15.4359 65.9849 16.1196 65.1174L12.978 62.6414ZM14.5488 63.8794L16.1196 65.1174L21.8102 57.8972L20.2394 56.6592L18.6686 55.4212L12.978 62.6414L14.5488 63.8794Z" fill="#FF2C68"/>
<path d="M60.0356 62.6414C60.7194 63.5089 60.5704 64.7664 59.7028 65.4502C58.8353 66.1339 57.5778 65.9849 56.8941 65.1174L60.0356 62.6414ZM58.4648 63.8794L56.8941 65.1174L51.2035 57.8972L52.7743 56.6592L54.345 55.4212L60.0356 62.6414L58.4648 63.8794Z" fill="#FF2C68"/>
</svg>
