<svg width="68" height="60" viewBox="0 0 68 60" fill="none" xmlns="http://www.w3.org/2000/svg">
<path d="M34 60L31.1374 57.4337C24.9721 51.8438 19.8721 47.059 15.8374 43.0793C11.8034 39.099 8.619 35.5888 6.28433 32.5489C3.94967 29.509 2.31861 26.7584 1.39117 24.2971C0.463722 21.8364 0 19.3611 0 16.871C0 12.1028 1.63232 8.09904 4.89695 4.8598C8.16095 1.61993 12.1953 0 17 0C20.3226 0 23.4392 0.843552 26.35 2.53066C29.2608 4.21776 31.8108 6.67156 34 9.89205C36.1892 6.67156 38.7392 4.21776 41.65 2.53066C44.5608 0.843552 47.6774 0 51 0C55.8047 0 59.8391 1.61993 63.1031 4.8598C66.3677 8.09904 68 12.1028 68 16.871C68 19.3611 67.5363 21.8364 66.6088 24.2971C65.6814 26.7584 64.0503 29.509 61.7157 32.5489C59.381 35.5888 56.2086 39.099 52.1985 43.0793C48.1884 47.059 43.0764 51.8438 36.8626 57.4337L34 60ZM34 54.9246C40.0444 49.5028 45.0185 44.8585 48.9222 40.992C52.8259 37.1247 55.9111 33.7696 58.1778 30.9265C60.4444 28.0834 62.0185 25.5649 62.9 23.3711C63.7815 21.1766 64.2222 19.0099 64.2222 16.871C64.2222 13.1219 62.963 9.99766 60.4444 7.49824C57.9259 4.99883 54.7778 3.74912 51 3.74912C47.9923 3.74912 45.2172 4.60111 42.6747 6.30509C40.1316 8.00906 37.8552 10.5744 35.8454 14.0011H32.1546C30.0963 10.5263 27.8079 7.94876 25.2894 6.26853C22.7709 4.58892 20.0077 3.74912 17 3.74912C13.2707 3.74912 10.1345 4.99883 7.59145 7.49824C5.049 9.99766 3.77778 13.1219 3.77778 16.871C3.77778 19.0099 4.21852 21.1766 5.1 23.3711C5.98148 25.5649 7.55556 28.0834 9.82222 30.9265C12.0889 33.7696 15.1741 37.1125 19.0778 40.9554C22.9815 44.7982 27.9556 49.4547 34 54.9246Z" fill="#FF2C68"/>
</svg>
