<svg width="94" height="53" viewBox="0 0 94 53" fill="none" xmlns="http://www.w3.org/2000/svg">
<path d="M30.7699 16.9074H32.5129V35.9334H30.7699V16.9074ZM22.4959 18.3774C23.4339 18.3774 24.2599 18.6504 24.9739 19.1964C25.7019 19.7284 26.2689 20.4914 26.6749 21.4854C27.0949 22.4794 27.3049 23.6484 27.3049 24.9924C27.3049 26.3364 27.0949 27.5054 26.6749 28.4994C26.2689 29.4934 25.7019 30.2634 24.9739 30.8094C24.2599 31.3554 23.4339 31.6284 22.4959 31.6284C21.5579 31.6284 20.7249 31.3554 19.9969 30.8094C19.2689 30.2634 18.6949 29.4934 18.2749 28.4994C17.8689 27.5054 17.6659 26.3364 17.6659 24.9924C17.6659 23.6484 17.8689 22.4794 18.2749 21.4854C18.6949 20.4914 19.2689 19.7284 19.9969 19.1964C20.7249 18.6504 21.5579 18.3774 22.4959 18.3774ZM22.4959 19.9314C21.8659 19.9314 21.3129 20.1414 20.8369 20.5614C20.3749 20.9674 20.0109 21.5554 19.7449 22.3254C19.4789 23.0814 19.3459 23.9704 19.3459 24.9924C19.3459 26.0144 19.4789 26.9104 19.7449 27.6804C20.0109 28.4364 20.3749 29.0244 20.8369 29.4444C21.3129 29.8644 21.8659 30.0744 22.4959 30.0744C23.1119 30.0744 23.6509 29.8644 24.1129 29.4444C24.5889 29.0244 24.9599 28.4364 25.2259 27.6804C25.4919 26.9104 25.6249 26.0144 25.6249 24.9924C25.6249 23.9704 25.4919 23.0814 25.2259 22.3254C24.9599 21.5554 24.5889 20.9674 24.1129 20.5614C23.6509 20.1414 23.1119 19.9314 22.4959 19.9314ZM40.5122 23.3544H42.2552V26.9244H40.5122V23.3544ZM47.4842 23.3544H49.2062V26.9244H47.4842V23.3544ZM36.2912 26.2944H53.4482V27.7014H36.2912V26.2944ZM44.8592 29.1504C46.8892 29.1504 48.4782 29.4374 49.6262 30.0114C50.7742 30.5854 51.3482 31.4114 51.3482 32.4894C51.3482 33.5814 50.7742 34.4144 49.6262 34.9884C48.4782 35.5764 46.8892 35.8704 44.8592 35.8704C42.8292 35.8704 41.2332 35.5764 40.0712 34.9884C38.9232 34.4144 38.3492 33.5814 38.3492 32.4894C38.3492 31.4114 38.9232 30.5854 40.0712 30.0114C41.2332 29.4374 42.8292 29.1504 44.8592 29.1504ZM44.8592 30.4944C43.8652 30.4944 43.0112 30.5714 42.2972 30.7254C41.5972 30.8794 41.0582 31.1104 40.6802 31.4184C40.3022 31.7124 40.1132 32.0694 40.1132 32.4894C40.1132 32.9374 40.3022 33.3154 40.6802 33.6234C41.0582 33.9174 41.5972 34.1414 42.2972 34.2954C43.0112 34.4494 43.8652 34.5264 44.8592 34.5264C45.8532 34.5264 46.7002 34.4494 47.4002 34.2954C48.1142 34.1414 48.6602 33.9174 49.0382 33.6234C49.4162 33.3154 49.6052 32.9374 49.6052 32.4894C49.6052 32.0694 49.4162 31.7124 49.0382 31.4184C48.6602 31.1104 48.1142 30.8794 47.4002 30.7254C46.7002 30.5714 45.8532 30.4944 44.8592 30.4944ZM44.8592 17.2644C46.2312 17.2644 47.4142 17.4044 48.4082 17.6844C49.4162 17.9644 50.1862 18.3704 50.7182 18.9024C51.2642 19.4204 51.5372 20.0504 51.5372 20.7924C51.5372 21.5204 51.2642 22.1504 50.7182 22.6824C50.1862 23.2144 49.4162 23.6204 48.4082 23.9004C47.4142 24.1664 46.2312 24.2994 44.8592 24.2994C43.4872 24.2994 42.2972 24.1664 41.2892 23.9004C40.2952 23.6204 39.5252 23.2144 38.9792 22.6824C38.4472 22.1504 38.1812 21.5204 38.1812 20.7924C38.1812 20.0504 38.4472 19.4204 38.9792 18.9024C39.5252 18.3704 40.2952 17.9644 41.2892 17.6844C42.2972 17.4044 43.4872 17.2644 44.8592 17.2644ZM44.8592 18.6294C43.8652 18.6294 42.9972 18.7134 42.2552 18.8814C41.5272 19.0494 40.9602 19.2944 40.5542 19.6164C40.1622 19.9384 39.9662 20.3304 39.9662 20.7924C39.9662 21.2404 40.1622 21.6324 40.5542 21.9684C40.9602 22.2904 41.5272 22.5354 42.2552 22.7034C42.9972 22.8714 43.8652 22.9554 44.8592 22.9554C45.8812 22.9554 46.7562 22.8714 47.4842 22.7034C48.2122 22.5354 48.7722 22.2904 49.1642 21.9684C49.5562 21.6324 49.7522 21.2404 49.7522 20.7924C49.7522 20.3304 49.5562 19.9384 49.1642 19.6164C48.7722 19.2944 48.2122 19.0494 47.4842 18.8814C46.7562 18.7134 45.8812 18.6294 44.8592 18.6294ZM60.8386 25.4334H62.5606V30.0324H60.8386V25.4334ZM69.4696 16.9284H71.2336V31.2714H69.4696V16.9284ZM58.2766 34.0644H71.6956V35.4924H58.2766V34.0644ZM58.2766 29.6964H60.0196V34.4844H58.2766V29.6964ZM55.7146 25.8534L55.4836 24.4254C56.6456 24.4114 57.9196 24.3974 59.3056 24.3834C60.6916 24.3554 62.1126 24.2994 63.5686 24.2154C65.0246 24.1174 66.4246 23.9774 67.7686 23.7954L67.8946 25.0554C66.5226 25.2934 65.1156 25.4684 63.6736 25.5804C62.2316 25.6924 60.8316 25.7694 59.4736 25.8114C58.1156 25.8394 56.8626 25.8534 55.7146 25.8534ZM65.3536 27.2394H69.9106V28.6464H65.3536V27.2394ZM57.1846 18.0624H65.3746V19.4694H57.1846V18.0624ZM64.3246 18.0624H66.0466V18.7974C66.0466 19.3574 66.0256 20.1344 65.9836 21.1284C65.9416 22.1224 65.7876 23.3054 65.5216 24.6774L63.8206 24.5514C64.0726 23.1654 64.2196 21.9964 64.2616 21.0444C64.3036 20.0924 64.3246 19.3434 64.3246 18.7974V18.0624Z" fill="#363A3B"/>
<path d="M92.4004 1H93.4004L92.4004 0V1ZM92.4004 18.1484L92.4004 19.1484L93.4004 18.1484H92.4004ZM83.6318 26.7227L82.6318 26.7226V26.7227L83.6318 26.7227ZM92.4004 35.2969H93.4004L92.4004 34.2969L92.4004 35.2969ZM92.4004 51.2207V52.2207L93.4004 51.2207H92.4004ZM1 51.2207H0L1 52.2207V51.2207ZM1 1V0L0 1H1ZM92.4004 1H91.4004V18.1484H92.4004H93.4004V1H92.4004ZM92.4004 18.1484L92.4003 17.1484C87.0267 17.1487 82.6319 21.4141 82.6318 26.7226L83.6318 26.7227L84.6318 26.7227C84.6319 22.5608 88.0888 19.1487 92.4004 19.1484L92.4004 18.1484ZM83.6318 26.7227L82.6318 26.7227C82.6321 32.031 87.0268 36.2966 92.4003 36.2969L92.4004 35.2969L92.4004 34.2969C88.0889 34.2967 84.6321 30.8844 84.6318 26.7226L83.6318 26.7227ZM92.4004 35.2969H91.4004V51.2207H92.4004H93.4004V35.2969H92.4004ZM92.4004 51.2207V50.2207H1V51.2207V52.2207H92.4004V51.2207ZM1 51.2207H2V1H1H0V51.2207H1ZM1 1V2H92.4004V1V0H1V1Z" fill="#363A3B"/>
</svg>
