<svg width="60" height="55" viewBox="0 0 60 55" fill="none" xmlns="http://www.w3.org/2000/svg">
<path d="M7 20L26 1" stroke="#363A3B" stroke-width="2" stroke-linecap="round" stroke-linejoin="round"/>
<path d="M54 20L33 1" stroke="#363A3B" stroke-width="2" stroke-linecap="round" stroke-linejoin="round"/>
<path d="M50.9558 21.0342C53.3915 21.0342 55.2618 23.1927 54.915 25.6036L51.3518 50.3771C51.0686 52.346 49.3817 53.8076 47.3926 53.8076H11.116C9.1244 53.8076 7.4362 52.3425 7.15583 50.3707L3.63322 25.5973C3.29069 23.1884 5.16023 21.0342 7.59338 21.0342H50.9558Z" fill="white"/>
<path d="M3.63322 25.5973L2.64318 25.7381L3.63322 25.5973ZM54.915 25.6036L53.9252 25.4613L54.915 25.6036ZM54.915 25.6036L53.9252 25.4613L50.362 50.2347L51.3518 50.3771L52.3416 50.5195L55.9048 25.746L54.915 25.6036ZM47.3926 53.8076V52.8076H11.116V53.8076V54.8076H47.3926V53.8076ZM7.15583 50.3707L8.14587 50.2299L4.62326 25.4565L3.63322 25.5973L2.64318 25.7381L6.16579 50.5115L7.15583 50.3707ZM7.59338 21.0342V22.0342H50.9558V21.0342V20.0342H7.59338V21.0342ZM3.63322 25.5973L4.62326 25.4565C4.36636 23.6498 5.76852 22.0342 7.59338 22.0342V21.0342V20.0342C4.55195 20.0342 2.21501 22.7269 2.64318 25.7381L3.63322 25.5973ZM11.116 53.8076V52.8076C9.6223 52.8076 8.35615 51.7088 8.14587 50.2299L7.15583 50.3707L6.16579 50.5115C6.51625 52.9762 8.62651 54.8076 11.116 54.8076V53.8076ZM51.3518 50.3771L50.362 50.2347C50.1496 51.7114 48.8844 52.8076 47.3926 52.8076V53.8076V54.8076C49.879 54.8076 51.9876 52.9806 52.3416 50.5195L51.3518 50.3771ZM54.915 25.6036L55.9048 25.746C56.3383 22.7324 54.0004 20.0342 50.9558 20.0342V21.0342V22.0342C52.7826 22.0342 54.1853 23.6531 53.9252 25.4613L54.915 25.6036Z" fill="#363A3B"/>
<path d="M55.6721 20.4092C57.3119 20.4092 58.4715 22.0132 57.9575 23.5703V23.5703C57.632 24.5565 56.7106 25.2227 55.6721 25.2227H3.41559C2.39857 25.2227 1.49133 24.5834 1.14916 23.6257V23.6257C0.589163 22.0582 1.75114 20.4092 3.41559 20.4092H55.6721Z" fill="white"/>
<path d="M1.14916 23.6257L2.09086 23.2892L1.14916 23.6257ZM1.14916 23.6257L2.09086 23.2892L1.14916 23.6257ZM57.9575 23.5703L58.9071 23.8838L57.9575 23.5703ZM57.9575 23.5703L58.9071 23.8838L57.9575 23.5703ZM55.6721 25.2227V24.2227H3.41559V25.2227V26.2227H55.6721V25.2227ZM3.41559 20.4092V21.4092H55.6721V20.4092V19.4092H3.41559V20.4092ZM1.14916 23.6257L2.09086 23.2892C1.76354 22.3731 2.44272 21.4092 3.41559 21.4092V20.4092V19.4092C1.05956 19.4092 -0.58522 21.7434 0.207457 23.9621L1.14916 23.6257ZM3.41559 25.2227V24.2227C2.82115 24.2227 2.29086 23.849 2.09086 23.2892L1.14916 23.6257L0.207457 23.9621C0.6918 25.3178 1.976 26.2227 3.41559 26.2227V25.2227ZM57.9575 23.5703L57.0079 23.2569C56.8177 23.8333 56.2791 24.2227 55.6721 24.2227V25.2227V26.2227C57.1421 26.2227 58.4463 25.2797 58.9071 23.8838L57.9575 23.5703ZM57.9575 23.5703L58.9071 23.8838C59.6347 21.6796 57.9932 19.4092 55.6721 19.4092V20.4092V21.4092C56.6305 21.4092 57.3084 22.3467 57.0079 23.2569L57.9575 23.5703Z" fill="#363A3B"/>
<path d="M30 34L30 45" stroke="#363A3B" stroke-width="2" stroke-linecap="round" stroke-linejoin="bevel"/>
<path d="M17 34L19 45" stroke="#363A3B" stroke-width="2" stroke-linecap="round" stroke-linejoin="bevel"/>
<path d="M43 34L42 45" stroke="#363A3B" stroke-width="2" stroke-linecap="round" stroke-linejoin="bevel"/>
</svg>
