<svg width="79" height="70" viewBox="0 0 79 70" fill="none" xmlns="http://www.w3.org/2000/svg">
<mask id="path-1-inside-1_365_50" fill="white">
<path d="M78.0242 36.7908C78.8425 37.5777 78.8426 38.8872 78.0243 39.6741L71.5396 45.9101C70.7653 46.6546 69.5413 46.6546 68.767 45.9101L68.1245 45.2923C66.8537 44.0703 64.7383 44.971 64.7383 46.7339V67.4219C64.7383 68.5264 63.8429 69.4219 62.7383 69.4219H46.4375C45.3329 69.4219 44.4375 68.5264 44.4375 67.4219V55.4551C44.4375 54.3505 43.5421 53.4551 42.4375 53.4551H36.7187C35.6142 53.4551 34.7188 54.3505 34.7188 55.4551V67.4219C34.7188 68.5264 33.8233 69.4219 32.7187 69.4219H16.3955C15.2909 69.4219 14.3955 68.5264 14.3955 67.4219V47.1094C14.3955 45.3463 12.2799 44.4457 11.0092 45.6678L10.7573 45.91C9.98311 46.6546 8.75902 46.6546 7.98475 45.9101L1.49932 39.6741C0.680948 38.8872 0.680952 37.5777 1.49933 36.7908L38.3755 1.3329C39.1497 0.588456 40.3737 0.588456 41.1479 1.3329L78.0242 36.7908Z"/>
</mask>
<path d="M78.0242 36.7908C78.8425 37.5777 78.8426 38.8872 78.0243 39.6741L71.5396 45.9101C70.7653 46.6546 69.5413 46.6546 68.767 45.9101L68.1245 45.2923C66.8537 44.0703 64.7383 44.971 64.7383 46.7339V67.4219C64.7383 68.5264 63.8429 69.4219 62.7383 69.4219H46.4375C45.3329 69.4219 44.4375 68.5264 44.4375 67.4219V55.4551C44.4375 54.3505 43.5421 53.4551 42.4375 53.4551H36.7187C35.6142 53.4551 34.7188 54.3505 34.7188 55.4551V67.4219C34.7188 68.5264 33.8233 69.4219 32.7187 69.4219H16.3955C15.2909 69.4219 14.3955 68.5264 14.3955 67.4219V47.1094C14.3955 45.3463 12.2799 44.4457 11.0092 45.6678L10.7573 45.91C9.98311 46.6546 8.75902 46.6546 7.98475 45.9101L1.49932 39.6741C0.680948 38.8872 0.680952 37.5777 1.49933 36.7908L38.3755 1.3329C39.1497 0.588456 40.3737 0.588456 41.1479 1.3329L78.0242 36.7908Z" fill="#FF2C68"/>
<path d="M38.3755 1.3329L35.6031 -1.55043L38.3755 1.3329ZM41.1479 1.3329L38.3755 4.21623L41.1479 1.3329ZM1.49932 39.6741L-1.27313 42.5574L1.49932 39.6741ZM10.7573 45.91L7.98463 43.0269L10.7573 45.91ZM7.98475 45.9101L5.21231 48.7935L7.98475 45.9101ZM11.0092 45.6678L13.7819 48.5509L11.0092 45.6678ZM68.1245 45.2923L65.352 48.1756L68.1245 45.2923ZM71.5396 45.9101L68.767 43.0269L71.5396 45.9101ZM78.0243 39.6741L75.2517 36.7909L78.0243 39.6741ZM78.0242 36.7908L80.7966 33.9075L78.0242 36.7908ZM78.0243 39.6741L75.2517 36.7909L68.767 43.0269L71.5396 45.9101L74.3122 48.7933L80.7969 42.5573L78.0243 39.6741ZM68.767 45.9101L71.5395 43.0269L70.897 42.409L68.1245 45.2923L65.352 48.1756L65.9945 48.7934L68.767 45.9101ZM64.7383 46.7339H60.7383V67.4219H64.7383H68.7383V46.7339H64.7383ZM62.7383 69.4219V65.4219H46.4375V69.4219V73.4219H62.7383V69.4219ZM44.4375 67.4219H48.4375V55.4551H44.4375H40.4375V67.4219H44.4375ZM42.4375 53.4551V49.4551H36.7187V53.4551V57.4551H42.4375V53.4551ZM34.7188 55.4551H30.7188V67.4219H34.7188H38.7188V55.4551H34.7188ZM32.7187 69.4219V65.4219H16.3955V69.4219V73.4219H32.7187V69.4219ZM14.3955 67.4219H18.3955V47.1094H14.3955H10.3955V67.4219H14.3955ZM11.0092 45.6678L8.23647 42.7847L7.98463 43.0269L10.7573 45.91L13.53 48.7931L13.7819 48.5509L11.0092 45.6678ZM7.98475 45.9101L10.7572 43.0268L4.27177 36.7908L1.49932 39.6741L-1.27313 42.5574L5.21231 48.7935L7.98475 45.9101ZM1.49933 36.7908L4.27176 39.6741L41.1479 4.21623L38.3755 1.3329L35.6031 -1.55043L-1.27311 33.9074L1.49933 36.7908ZM41.1479 1.3329L38.3755 4.21623L75.2518 39.6742L78.0242 36.7908L80.7966 33.9075L43.9204 -1.55043L41.1479 1.3329ZM38.3755 1.3329L41.1479 4.21623C40.3737 4.96068 39.1497 4.96068 38.3755 4.21623L41.1479 1.3329L43.9204 -1.55043C41.5977 -3.78377 37.9257 -3.78377 35.6031 -1.55043L38.3755 1.3329ZM1.49932 39.6741L4.27177 36.7908C5.09014 37.5777 5.09013 38.8872 4.27176 39.6741L1.49933 36.7908L-1.27311 33.9074C-3.72823 36.2681 -3.72824 40.1967 -1.27313 42.5574L1.49932 39.6741ZM10.7573 45.91L7.98463 43.0269C8.75884 42.2824 9.98293 42.2823 10.7572 43.0268L7.98475 45.9101L5.21231 48.7935C7.53512 51.0269 11.2074 51.0268 13.53 48.7931L10.7573 45.91ZM14.3955 47.1094H18.3955C18.3955 41.8202 12.0487 39.1184 8.23647 42.7847L11.0092 45.6678L13.7819 48.5509C12.5111 49.773 10.3955 48.8724 10.3955 47.1094H14.3955ZM16.3955 69.4219V65.4219C17.5001 65.4219 18.3955 66.3173 18.3955 67.4219H14.3955H10.3955C10.3955 70.7356 13.0818 73.4219 16.3955 73.4219V69.4219ZM34.7188 67.4219H30.7188C30.7188 66.3173 31.6142 65.4219 32.7187 65.4219V69.4219V73.4219C36.0325 73.4219 38.7188 70.7356 38.7188 67.4219H34.7188ZM36.7187 53.4551V49.4551C33.405 49.4551 30.7188 52.1414 30.7188 55.4551H34.7188H38.7188C38.7188 56.5596 37.8233 57.4551 36.7187 57.4551V53.4551ZM44.4375 55.4551H48.4375C48.4375 52.1414 45.7512 49.4551 42.4375 49.4551V53.4551V57.4551C41.3329 57.4551 40.4375 56.5596 40.4375 55.4551H44.4375ZM46.4375 69.4219V65.4219C47.5421 65.4219 48.4375 66.3173 48.4375 67.4219H44.4375H40.4375C40.4375 70.7356 43.1238 73.4219 46.4375 73.4219V69.4219ZM64.7383 67.4219H60.7383C60.7383 66.3173 61.6337 65.4219 62.7383 65.4219V69.4219V73.4219C66.052 73.4219 68.7383 70.7356 68.7383 67.4219H64.7383ZM68.1245 45.2923L70.897 42.409C67.0847 38.7431 60.7383 41.445 60.7383 46.7339H64.7383H68.7383C68.7383 48.4969 66.6228 49.3975 65.352 48.1756L68.1245 45.2923ZM71.5396 45.9101L68.767 43.0269C69.5412 42.2824 70.7653 42.2824 71.5395 43.0269L68.767 45.9101L65.9945 48.7934C68.3173 51.0269 71.9895 51.0269 74.3122 48.7933L71.5396 45.9101ZM78.0243 39.6741L80.7969 42.5573C83.2518 40.1965 83.2517 36.2681 80.7966 33.9075L78.0242 36.7908L75.2518 39.6742C74.4334 38.8873 74.4334 37.5778 75.2517 36.7909L78.0243 39.6741Z" fill="#FF2C68" mask="url(#path-1-inside-1_365_50)"/>
</svg>
