<svg width="79" height="70" viewBox="0 0 79 70" fill="none" xmlns="http://www.w3.org/2000/svg">
<mask id="path-1-inside-1_387_338" fill="white">
<path d="M78.3314 37.1239C78.7406 37.5174 78.7406 38.1721 78.3315 38.5656L70.4041 46.1889C70.017 46.5612 69.4049 46.5612 69.0178 46.1889L65.989 43.2765C65.3536 42.6655 64.2959 43.1158 64.2959 43.9973V68.0342C64.2959 68.5865 63.8482 69.0342 63.2959 69.0342H44.9951C44.4428 69.0342 43.9951 68.5865 43.9951 68.0342V54.0674C43.9951 53.5151 43.5474 53.0674 42.9951 53.0674H35.2754C34.7231 53.0674 34.2754 53.5151 34.2754 54.0674V68.0342C34.2754 68.5865 33.8277 69.0342 33.2754 69.0342H14.9531C14.4008 69.0342 13.9531 68.5865 13.9531 68.0342V44.3726C13.9531 43.491 12.8953 43.0407 12.26 43.6518L9.62182 46.1889C9.23472 46.5612 8.62268 46.5612 8.23554 46.189L0.307277 38.5656C-0.101909 38.1721 -0.101907 37.5173 0.30728 37.1239L38.6262 0.278758C39.0133 -0.0934649 39.6253 -0.0934672 40.0124 0.278755L78.3314 37.1239Z"/>
</mask>
<path d="M78.3314 37.1239C78.7406 37.5174 78.7406 38.1721 78.3315 38.5656L70.4041 46.1889C70.017 46.5612 69.4049 46.5612 69.0178 46.1889L65.989 43.2765C65.3536 42.6655 64.2959 43.1158 64.2959 43.9973V68.0342C64.2959 68.5865 63.8482 69.0342 63.2959 69.0342H44.9951C44.4428 69.0342 43.9951 68.5865 43.9951 68.0342V54.0674C43.9951 53.5151 43.5474 53.0674 42.9951 53.0674H35.2754C34.7231 53.0674 34.2754 53.5151 34.2754 54.0674V68.0342C34.2754 68.5865 33.8277 69.0342 33.2754 69.0342H14.9531C14.4008 69.0342 13.9531 68.5865 13.9531 68.0342V44.3726C13.9531 43.491 12.8953 43.0407 12.26 43.6518L9.62182 46.1889C9.23472 46.5612 8.62268 46.5612 8.23554 46.189L0.307277 38.5656C-0.101909 38.1721 -0.101907 37.5173 0.30728 37.1239L38.6262 0.278758C39.0133 -0.0934649 39.6253 -0.0934672 40.0124 0.278755L78.3314 37.1239Z" fill="#AFAFAF"/>
<path d="M38.6262 0.278758L35.8538 -2.60457L38.6262 0.278758ZM40.0124 0.278755L42.7849 -2.60458L40.0124 0.278755ZM0.307277 38.5656L3.07972 35.6822L0.307277 38.5656ZM0.30728 37.1239L3.07972 40.0072L0.30728 37.1239ZM9.62182 46.1889L6.84913 43.3058L9.62182 46.1889ZM8.23554 46.189L5.46309 49.0723L8.23554 46.189ZM12.26 43.6518L15.0326 46.5349L12.26 43.6518ZM65.989 43.2765L63.2165 46.1598L65.989 43.2765ZM70.4041 46.1889L67.6315 43.3057L70.4041 46.1889ZM69.0178 46.1889L66.2453 49.0722L69.0178 46.1889ZM78.3315 38.5656L81.1041 41.4487L78.3315 38.5656ZM78.3314 37.1239L75.559 40.0073L78.3314 37.1239ZM78.3315 38.5656L75.5589 35.6824L67.6315 43.3057L70.4041 46.1889L73.1767 49.0721L81.1041 41.4487L78.3315 38.5656ZM69.0178 46.1889L71.7903 43.3057L68.7615 40.3933L65.989 43.2765L63.2165 46.1598L66.2453 49.0722L69.0178 46.1889ZM64.2959 43.9973H60.2959V68.0342H64.2959H68.2959V43.9973H64.2959ZM63.2959 69.0342V65.0342H44.9951V69.0342V73.0342H63.2959V69.0342ZM43.9951 68.0342H47.9951V54.0674H43.9951H39.9951V68.0342H43.9951ZM42.9951 53.0674V49.0674H35.2754V53.0674V57.0674H42.9951V53.0674ZM34.2754 54.0674H30.2754V68.0342H34.2754H38.2754V54.0674H34.2754ZM33.2754 69.0342V65.0342H14.9531V69.0342V73.0342H33.2754V69.0342ZM13.9531 68.0342H17.9531V44.3726H13.9531H9.95312V68.0342H13.9531ZM12.26 43.6518L9.48726 40.7687L6.84913 43.3058L9.62182 46.1889L12.3945 49.072L15.0326 46.5349L12.26 43.6518ZM8.23554 46.189L11.008 43.3056L3.07972 35.6822L0.307277 38.5656L-2.46517 41.4489L5.46309 49.0723L8.23554 46.189ZM0.30728 37.1239L3.07972 40.0072L41.3987 3.16209L38.6262 0.278758L35.8538 -2.60457L-2.46515 34.2406L0.30728 37.1239ZM40.0124 0.278755L37.24 3.16209L75.559 40.0073L78.3314 37.1239L81.1039 34.2406L42.7849 -2.60458L40.0124 0.278755ZM38.6262 0.278758L41.3987 3.16209C40.2373 4.27875 38.4014 4.27877 37.24 3.16209L40.0124 0.278755L42.7849 -2.60458C40.8493 -4.4657 37.7893 -4.46568 35.8538 -2.60457L38.6262 0.278758ZM0.307277 38.5656L3.07972 35.6822C4.30728 36.8626 4.30727 38.8269 3.07972 40.0072L0.30728 37.1239L-2.46515 34.2406C-4.51109 36.2078 -4.5111 39.4816 -2.46517 41.4489L0.307277 38.5656ZM9.62182 46.1889L6.84913 43.3058C8.01045 42.189 9.84658 42.1889 11.008 43.3056L8.23554 46.189L5.46309 49.0723C7.39877 50.9335 10.459 50.9334 12.3945 49.072L9.62182 46.1889ZM13.9531 44.3726H17.9531C17.9531 39.9649 12.6642 37.7134 9.48726 40.7687L12.26 43.6518L15.0326 46.5349C13.1265 48.368 9.95312 47.0171 9.95312 44.3726H13.9531ZM14.9531 69.0342V65.0342C16.61 65.0342 17.9531 66.3773 17.9531 68.0342H13.9531H9.95312C9.95312 70.7956 12.1917 73.0342 14.9531 73.0342V69.0342ZM34.2754 68.0342H30.2754C30.2754 66.3773 31.6185 65.0342 33.2754 65.0342V69.0342V73.0342C36.0368 73.0342 38.2754 70.7956 38.2754 68.0342H34.2754ZM35.2754 53.0674V49.0674C32.514 49.0674 30.2754 51.306 30.2754 54.0674H34.2754H38.2754C38.2754 55.7242 36.9322 57.0674 35.2754 57.0674V53.0674ZM43.9951 54.0674H47.9951C47.9951 51.306 45.7565 49.0674 42.9951 49.0674V53.0674V57.0674C41.3383 57.0674 39.9951 55.7242 39.9951 54.0674H43.9951ZM44.9951 69.0342V65.0342C46.652 65.0342 47.9951 66.3773 47.9951 68.0342H43.9951H39.9951C39.9951 70.7956 42.2337 73.0342 44.9951 73.0342V69.0342ZM64.2959 68.0342H60.2959C60.2959 66.3773 61.639 65.0342 63.2959 65.0342V69.0342V73.0342C66.0573 73.0342 68.2959 70.7956 68.2959 68.0342H64.2959ZM65.989 43.2765L68.7615 40.3933C65.5846 37.3383 60.2959 39.5899 60.2959 43.9973H64.2959H68.2959C68.2959 46.6418 65.1227 47.9927 63.2165 46.1598L65.989 43.2765ZM70.4041 46.1889L67.6315 43.3057C68.7928 42.1889 70.6289 42.1889 71.7903 43.3057L69.0178 46.1889L66.2453 49.0722C68.1809 50.9335 71.2411 50.9334 73.1767 49.0721L70.4041 46.1889ZM78.3315 38.5656L81.1041 41.4487C83.1498 39.4815 83.1497 36.2078 81.1039 34.2406L78.3314 37.1239L75.559 40.0073C74.3315 38.827 74.3314 36.8628 75.5589 35.6824L78.3315 38.5656Z" fill="#AFAFAF" mask="url(#path-1-inside-1_387_338)"/>
</svg>
