<svg width="80" height="70" viewBox="0 0 80 70" fill="none" xmlns="http://www.w3.org/2000/svg">
<mask id="path-1-inside-1_365_41" fill="white">
<path d="M78.7738 37.5116C79.183 37.9051 79.183 38.5598 78.7739 38.9533L70.8464 46.5766C70.4593 46.9489 69.8473 46.9489 69.4602 46.5766L66.4314 43.6642C65.796 43.0532 64.7383 43.5035 64.7383 44.385V68.4219C64.7383 68.9742 64.2906 69.4219 63.7383 69.4219H45.4375C44.8852 69.4219 44.4375 68.9742 44.4375 68.4219V54.4551C44.4375 53.9028 43.9898 53.4551 43.4375 53.4551H35.7187C35.1665 53.4551 34.7188 53.9028 34.7188 54.4551V68.4219C34.7188 68.9742 34.271 69.4219 33.7187 69.4219H15.3955C14.8432 69.4219 14.3955 68.9742 14.3955 68.4219V44.7602C14.3955 43.8787 13.3377 43.4284 12.7023 44.0395L10.0642 46.5766C9.6771 46.9489 9.06506 46.9489 8.67792 46.5766L0.749659 38.9533C0.340474 38.5598 0.340476 37.905 0.749663 37.5116L39.0686 0.666453C39.4557 0.29423 40.0677 0.294228 40.4548 0.666451L78.7738 37.5116Z"/>
</mask>
<path d="M39.0686 0.666453L36.2962 -2.21688L39.0686 0.666453ZM40.4548 0.666451L43.2273 -2.21688L40.4548 0.666451ZM0.749659 38.9533L3.52211 36.0699L0.749659 38.9533ZM0.749663 37.5116L3.5221 40.3949L0.749663 37.5116ZM10.0642 46.5766L7.29152 43.6935L10.0642 46.5766ZM8.67792 46.5766L5.90548 49.46L8.67792 46.5766ZM12.7023 44.0395L15.475 46.9226L12.7023 44.0395ZM66.4314 43.6642L63.6589 46.5475L66.4314 43.6642ZM70.8464 46.5766L68.0739 43.6934L70.8464 46.5766ZM69.4602 46.5766L66.6877 49.4599L69.4602 46.5766ZM78.7739 38.9533L81.5465 41.8364L78.7739 38.9533ZM78.7738 37.5116L76.0014 40.395L78.7738 37.5116ZM78.7739 38.9533L76.0013 36.0701L68.0739 43.6934L70.8464 46.5766L73.619 49.4598L81.5465 41.8364L78.7739 38.9533ZM69.4602 46.5766L72.2327 43.6934L69.2039 40.781L66.4314 43.6642L63.6589 46.5475L66.6877 49.4599L69.4602 46.5766ZM64.7383 44.385H60.7383V68.4219H64.7383H68.7383V44.385H64.7383ZM63.7383 69.4219V65.4219H45.4375V69.4219V73.4219H63.7383V69.4219ZM44.4375 68.4219H48.4375V54.4551H44.4375H40.4375V68.4219H44.4375ZM43.4375 53.4551V49.4551H35.7187V53.4551V57.4551H43.4375V53.4551ZM34.7188 54.4551H30.7188V68.4219H34.7188H38.7188V54.4551H34.7188ZM33.7187 69.4219V65.4219H15.3955V69.4219V73.4219H33.7187V69.4219ZM14.3955 68.4219H18.3955V44.7602H14.3955H10.3955V68.4219H14.3955ZM12.7023 44.0395L9.92964 41.1564L7.29152 43.6935L10.0642 46.5766L12.8369 49.4597L15.475 46.9226L12.7023 44.0395ZM8.67792 46.5766L11.4504 43.6933L3.52211 36.0699L0.749659 38.9533L-2.02279 41.8366L5.90548 49.46L8.67792 46.5766ZM0.749663 37.5116L3.5221 40.3949L41.841 3.54979L39.0686 0.666453L36.2962 -2.21688L-2.02277 34.6283L0.749663 37.5116ZM40.4548 0.666451L37.6824 3.54978L76.0014 40.395L78.7738 37.5116L81.5462 34.6283L43.2273 -2.21688L40.4548 0.666451ZM39.0686 0.666453L41.841 3.54979C40.6797 4.66644 38.8437 4.66646 37.6824 3.54978L40.4548 0.666451L43.2273 -2.21688C41.2917 -4.07801 38.2317 -4.07798 36.2962 -2.21688L39.0686 0.666453ZM0.749659 38.9533L3.52211 36.0699C4.74967 37.2503 4.74966 39.2146 3.5221 40.3949L0.749663 37.5116L-2.02277 34.6283C-4.0687 36.5955 -4.06872 39.8693 -2.02279 41.8366L0.749659 38.9533ZM10.0642 46.5766L7.29152 43.6935C8.45283 42.5767 10.289 42.5766 11.4504 43.6933L8.67792 46.5766L5.90548 49.46C7.84116 51.3212 10.9014 51.3211 12.8369 49.4597L10.0642 46.5766ZM14.3955 44.7602H18.3955C18.3955 40.3526 13.1065 38.1011 9.92964 41.1564L12.7023 44.0395L15.475 46.9226C13.5689 48.7557 10.3955 47.4048 10.3955 44.7602H14.3955ZM15.3955 69.4219V65.4219C17.0524 65.4219 18.3955 66.765 18.3955 68.4219H14.3955H10.3955C10.3955 71.1833 12.6341 73.4219 15.3955 73.4219V69.4219ZM34.7188 68.4219H30.7188C30.7188 66.765 32.0619 65.4219 33.7187 65.4219V69.4219V73.4219C36.4802 73.4219 38.7188 71.1833 38.7188 68.4219H34.7188ZM35.7187 53.4551V49.4551C32.9573 49.4551 30.7188 51.6937 30.7188 54.4551H34.7188H38.7188C38.7188 56.1119 37.3756 57.4551 35.7187 57.4551V53.4551ZM44.4375 54.4551H48.4375C48.4375 51.6937 46.1989 49.4551 43.4375 49.4551V53.4551V57.4551C41.7806 57.4551 40.4375 56.1119 40.4375 54.4551H44.4375ZM45.4375 69.4219V65.4219C47.0944 65.4219 48.4375 66.765 48.4375 68.4219H44.4375H40.4375C40.4375 71.1833 42.6761 73.4219 45.4375 73.4219V69.4219ZM64.7383 68.4219H60.7383C60.7383 66.765 62.0814 65.4219 63.7383 65.4219V69.4219V73.4219C66.4997 73.4219 68.7383 71.1833 68.7383 68.4219H64.7383ZM66.4314 43.6642L69.2039 40.781C66.0269 37.726 60.7383 39.9776 60.7383 44.385H64.7383H68.7383C68.7383 47.0295 65.5651 48.3804 63.6589 46.5475L66.4314 43.6642ZM70.8464 46.5766L68.0739 43.6934C69.2352 42.5766 71.0713 42.5766 72.2327 43.6934L69.4602 46.5766L66.6877 49.4599C68.6233 51.3212 71.6835 51.3211 73.619 49.4598L70.8464 46.5766ZM78.7739 38.9533L81.5465 41.8364C83.5922 39.8691 83.5921 36.5955 81.5462 34.6283L78.7738 37.5116L76.0014 40.395C74.7739 39.2147 74.7738 37.2504 76.0013 36.0701L78.7739 38.9533Z" fill="#CCCCCC" mask="url(#path-1-inside-1_365_41)"/>
</svg>
