<svg width="66" height="68" viewBox="0 0 66 68" fill="none" xmlns="http://www.w3.org/2000/svg">
<path d="M0.858707 49.068C0.403936 48.6696 0.403937 47.9619 0.858708 47.5636L17.8016 32.7219C18.4481 32.1557 19.4605 32.6147 19.4605 33.4742L19.4605 63.1574C19.4605 64.0168 18.4481 64.4759 17.8016 63.9096L0.858707 49.068Z" fill="#AFAFAF"/>
<rect x="15.2109" y="43.8418" width="50.1053" height="8.94737" rx="2" fill="#AFAFAF"/>
<path d="M64.4577 18.932C64.9125 19.3304 64.9125 20.0381 64.4577 20.4364L47.5148 35.2781C46.8683 35.8443 45.8559 35.3853 45.8559 34.5258L45.8559 4.84258C45.8559 3.98316 46.8683 3.52407 47.5148 4.09037L64.4577 18.932Z" fill="#AFAFAF"/>
<rect x="50.1055" y="24.1582" width="50.1053" height="8.94736" rx="2" transform="rotate(-180 50.1055 24.1582)" fill="#AFAFAF"/>
</svg>
