<svg width="73" height="68" viewBox="0 0 73 68" fill="none" xmlns="http://www.w3.org/2000/svg">
<mask id="path-1-inside-1_368_158" fill="white">
<path d="M20.0908 32.4004C20.7373 31.8341 21.75 32.293 21.75 33.1523V42C21.75 42.5523 22.1977 43 22.75 43H72C72.5523 43 73 43.4477 73 44V56C73 56.5523 72.5523 57 72 57H22.75C22.1977 57 21.75 57.4477 21.75 58V66.8467C21.75 67.7061 20.7373 68.1649 20.0908 67.5986L0.858398 50.752C0.403729 50.3536 0.403689 49.6454 0.858398 49.2471L20.0908 32.4004ZM51.25 1.15234C51.2501 0.292968 52.2627 -0.165885 52.9092 0.400391L72.1416 17.2471C72.5963 17.6454 72.5963 18.3536 72.1416 18.752L52.9092 35.5986C52.2627 36.1649 51.25 35.7061 51.25 34.8467V26C51.25 25.4477 50.8023 25 50.25 25H0.999999C0.447714 25 0 24.5523 0 24V12C0 11.4477 0.447715 11 1 11H50.25C50.8023 11 51.25 10.5523 51.25 10V1.15234Z"/>
</mask>
<path d="M20.0908 32.4004L22.7265 35.4093L22.7265 35.4092L20.0908 32.4004ZM21.75 33.1523L25.75 33.1523L25.75 33.1521L21.75 33.1523ZM21.75 66.8467L17.75 66.8467L17.75 66.8467L21.75 66.8467ZM20.0908 67.5986L22.7265 64.5898L22.7265 64.5897L20.0908 67.5986ZM0.858398 50.752L-1.77764 53.7605L-1.77724 53.7608L0.858398 50.752ZM0.858398 49.2471L-1.77724 46.2382L-1.77741 46.2383L0.858398 49.2471ZM51.25 1.15234L47.25 1.15209V1.15234H51.25ZM52.9092 0.400391L50.2735 3.40924L50.2735 3.40928L52.9092 0.400391ZM72.1416 17.2471L74.7774 14.2383L74.7772 14.2382L72.1416 17.2471ZM72.1416 18.752L74.7772 21.7608L74.7777 21.7605L72.1416 18.752ZM52.9092 35.5986L50.2735 32.5897L50.2735 32.5898L52.9092 35.5986ZM51.25 34.8467L55.25 34.8467V34.8467H51.25ZM20.0908 32.4004L22.7265 35.4092C20.789 37.1064 17.7501 35.7332 17.75 33.1526L21.75 33.1523L25.75 33.1521C25.7498 28.8527 20.6855 26.5618 17.4551 29.3915L20.0908 32.4004ZM21.75 33.1523H17.75V42H21.75H25.75V33.1523H21.75ZM22.75 43V47H72V43V39H22.75V43ZM73 44H69V56H73H77V44H73ZM72 57V53H22.75V57V61H72V57ZM21.75 58H17.75V66.8467H21.75H25.75V58H21.75ZM21.75 66.8467L17.75 66.8467C17.75 64.2654 20.7894 62.8929 22.7265 64.5898L20.0908 67.5986L17.4551 70.6075C20.6852 73.4369 25.75 71.1468 25.75 66.8467L21.75 66.8467ZM20.0908 67.5986L22.7265 64.5897L3.49404 47.7431L0.858398 50.752L-1.77724 53.7608L17.4552 70.6075L20.0908 67.5986ZM0.858398 50.752L3.49444 47.7434C4.85813 48.9383 4.85867 51.0605 3.49421 52.2558L0.858398 49.2471L-1.77741 46.2383C-4.0513 48.2304 -4.05067 51.7689 -1.77764 53.7605L0.858398 50.752ZM0.858398 49.2471L3.49404 52.256L22.7265 35.4093L20.0908 32.4004L17.4552 29.3915L-1.77724 46.2382L0.858398 49.2471ZM51.25 1.15234L55.25 1.1526C55.2498 3.7332 52.211 5.10645 50.2735 3.40924L52.9092 0.400391L55.5449 -2.60845C52.3145 -5.43822 47.2503 -3.14726 47.25 1.15209L51.25 1.15234ZM52.9092 0.400391L50.2735 3.40928L69.506 20.256L72.1416 17.2471L74.7772 14.2382L55.5448 -2.6085L52.9092 0.400391ZM72.1416 17.2471L69.5058 20.2558C68.1413 19.0605 68.1419 16.9383 69.5055 15.7434L72.1416 18.752L74.7777 21.7605C77.0507 19.7689 77.0513 16.2304 74.7774 14.2383L72.1416 17.2471ZM72.1416 18.752L69.506 15.7431L50.2735 32.5897L52.9092 35.5986L55.5448 38.6075L74.7772 21.7608L72.1416 18.752ZM52.9092 35.5986L50.2735 32.5898C52.2106 30.8929 55.25 32.2654 55.25 34.8467L51.25 34.8467L47.25 34.8467C47.25 39.1468 52.3148 41.437 55.5449 38.6075L52.9092 35.5986ZM51.25 34.8467H55.25V26H51.25H47.25V34.8467H51.25ZM50.25 25V21H0.999999V25V29H50.25V25ZM0 24H4V12H0H-4V24H0ZM1 11V15H50.25V11V7H1V11ZM51.25 10H55.25V1.15234H51.25H47.25V10H51.25ZM50.25 11V15C53.0114 15 55.25 12.7614 55.25 10H51.25H47.25C47.25 8.34315 48.5931 7 50.25 7V11ZM0 12H4C4 13.6569 2.65686 15 1 15V11V7C-1.76143 7 -4 9.23858 -4 12H0ZM0.999999 25V21C2.65686 21 4 22.3432 4 24H0H-4C-4 26.7614 -1.76143 29 0.999999 29V25ZM51.25 26H55.25C55.25 23.2386 53.0114 21 50.25 21V25V29C48.5931 29 47.25 27.6569 47.25 26H51.25ZM22.75 57V53C19.9886 53 17.75 55.2386 17.75 58H21.75H25.75C25.75 59.6568 24.4069 61 22.75 61V57ZM73 56H69C69 54.3431 70.3431 53 72 53V57V61C74.7614 61 77 58.7614 77 56H73ZM72 43V47C70.3431 47 69 45.6568 69 44H73H77C77 41.2386 74.7614 39 72 39V43ZM21.75 42H17.75C17.75 44.7614 19.9886 47 22.75 47V43V39C24.4069 39 25.75 40.3431 25.75 42H21.75Z" fill="#CCCCCC" mask="url(#path-1-inside-1_368_158)"/>
</svg>
