<svg width="73" height="76" viewBox="0 0 73 76" fill="none" xmlns="http://www.w3.org/2000/svg">
<path d="M0.858708 54.7522C0.403937 54.3538 0.403937 53.6462 0.858708 53.2478L20.0911 36.4006C20.7375 35.8343 21.75 36.2934 21.75 37.1528L21.75 70.8472C21.75 71.7066 20.7375 72.1657 20.0911 71.5994L0.858708 54.7522Z" fill="#FF2C68"/>
<rect x="17" y="49" width="56" height="10" rx="2" fill="#FF2C68"/>
<path d="M72.1413 21.2478C72.5961 21.6462 72.5961 22.3538 72.1413 22.7522L52.9089 39.5994C52.2625 40.1657 51.25 39.7066 51.25 38.8472L51.25 5.15284C51.25 4.29342 52.2625 3.83433 52.9089 4.40062L72.1413 21.2478Z" fill="#FF2C68"/>
<rect x="56" y="27" width="56" height="10" rx="2" transform="rotate(-180 56 27)" fill="#FF2C68"/>
</svg>
