<svg width="59" height="64" viewBox="0 0 59 64" fill="none" xmlns="http://www.w3.org/2000/svg">
<circle cx="29.5" cy="16.5" r="14.5" stroke="#CCCCCC" stroke-width="4"/>
<path d="M56.8824 59.4602L58.8791 59.3445L58.8791 59.3441L56.8824 59.4602ZM54.941 61.4553L54.941 63.4553L54.941 63.4553L54.941 61.4553ZM3.94102 61.4553L3.94072 63.4553H3.94102V61.4553ZM2.00352 59.4592L0.00722047 59.3375L0.00720625 59.3378L2.00352 59.4592ZM29.441 37.4553L29.441 39.4553H29.441V37.4553ZM18.6591 34.4992L19.3699 36.3686L18.6591 34.4992ZM19.5608 34.5986L18.4911 36.2886L19.5608 34.5986ZM40.7022 34.1816L41.4127 32.312L40.7022 34.1816ZM40.7022 34.1816L39.9917 36.0511C50.4639 40.0311 54.3828 50.9231 54.8858 59.5762L56.8824 59.4602L58.8791 59.3441C58.3388 50.0503 54.0683 37.1218 41.4127 32.312L40.7022 34.1816ZM56.8824 59.4602L54.8858 59.5758C54.8849 59.5611 54.8875 59.5375 54.897 59.5128C54.9058 59.4902 54.9169 59.4759 54.9244 59.4682C54.9386 59.4538 54.9481 59.4553 54.941 59.4553L54.941 61.4553L54.941 63.4553C57.1131 63.4553 59.0141 61.6757 58.8791 59.3445L56.8824 59.4602ZM54.941 61.4553V59.4553H3.94102V61.4553V63.4553H54.941V61.4553ZM3.94102 61.4553L3.94132 59.4553C3.93472 59.4553 3.94503 59.454 3.95998 59.4692C3.96794 59.4773 3.97937 59.4923 3.98838 59.5156C3.99818 59.541 4.00075 59.5654 3.99983 59.5806L2.00352 59.4592L0.00720625 59.3378C-0.134775 61.6723 1.76808 63.4549 3.94072 63.4553L3.94102 61.4553ZM2.00352 59.4592L3.99982 59.5808C4.47114 51.8459 7.86728 40.742 19.3699 36.3686L18.6591 34.4992L17.9483 32.6297C4.26203 37.8334 0.516832 50.9743 0.00722049 59.3375L2.00352 59.4592ZM19.5608 34.5986L18.4911 36.2886C21.6602 38.2944 25.418 39.4552 29.441 39.4553L29.441 37.4553L29.441 35.4553C26.1975 35.4552 23.1784 34.5214 20.6304 32.9087L19.5608 34.5986ZM29.441 37.4553V39.4553C33.6818 39.4553 37.627 38.1652 40.8988 35.9563L39.7796 34.2987L38.6605 32.6411C36.0289 34.4179 32.8592 35.4553 29.441 35.4553V37.4553ZM18.6591 34.4992L19.3699 36.3686C19.0407 36.4937 18.7196 36.4332 18.4911 36.2886L19.5608 34.5986L20.6304 32.9087C19.8646 32.424 18.8718 32.2786 17.9483 32.6297L18.6591 34.4992ZM40.7022 34.1816L41.4127 32.312C40.4546 31.9479 39.4308 32.1211 38.6605 32.6411L39.7796 34.2987L40.8988 35.9563C40.6712 36.1099 40.3377 36.1826 39.9917 36.0511L40.7022 34.1816Z" fill="#CCCCCC"/>
</svg>
