<svg width="64" height="67" viewBox="0 0 64 67" fill="none" xmlns="http://www.w3.org/2000/svg">
<mask id="path-1-inside-1_368_208" fill="white">
<path d="M16.5928 50.5H47.4082V39H64.001V66.4229H0.000976562V62H0V39H16.5928V50.5Z"/>
</mask>
<path d="M16.5928 50.5H12.5928C12.5928 52.7091 14.3836 54.5 16.5928 54.5V50.5ZM47.4082 50.5V54.5C49.6173 54.5 51.4082 52.7091 51.4082 50.5H47.4082ZM47.4082 39V35C45.1991 35 43.4082 36.7909 43.4082 39H47.4082ZM64.001 39H68.001C68.001 36.7909 66.2101 35 64.001 35V39ZM64.001 66.4229V70.4229C66.2101 70.4229 68.001 68.632 68.001 66.4229H64.001ZM0.000976562 66.4229H-3.99902C-3.99902 68.632 -2.20816 70.4229 0.000976563 70.4229L0.000976562 66.4229ZM0.000976562 62H4.00098C4.00098 59.7909 2.21012 58 0.000976562 58L0.000976562 62ZM0 62H-4C-4 64.2091 -2.20914 66 0 66L0 62ZM0 39V35C-2.20914 35 -4 36.7909 -4 39H0ZM16.5928 39H20.5928C20.5928 36.7909 18.8019 35 16.5928 35V39ZM16.5928 50.5V54.5H47.4082V50.5V46.5H16.5928V50.5ZM47.4082 50.5H51.4082V39H47.4082H43.4082V50.5H47.4082ZM47.4082 39V43H64.001V39V35H47.4082V39ZM64.001 39H60.001V66.4229H64.001H68.001V39H64.001ZM64.001 66.4229V62.4229H0.000976562V66.4229V70.4229H64.001V66.4229ZM0.000976562 66.4229H4.00098V62H0.000976562H-3.99902V66.4229H0.000976562ZM0.000976562 62V58H0V62V66H0.000976562V62ZM0 62H4V39H0H-4V62H0ZM0 39V43H16.5928V39V35H0V39ZM16.5928 39H12.5928V50.5H16.5928H20.5928V39H16.5928Z" fill="#CCCCCC" mask="url(#path-1-inside-1_368_208)"/>
<mask id="path-3-inside-2_368_208" fill="white">
<path d="M56.3524 25.3347C56.9632 25.9701 56.5129 27.0277 55.6314 27.0277H41.9993C41.4471 27.0277 40.9993 27.4754 40.9993 28.0277V46.7699C40.9993 47.3222 40.5516 47.7699 39.9993 47.7699H23.9993C23.4471 47.7699 22.9993 47.3222 22.9993 46.7699V28.0277C22.9993 27.4754 22.5516 27.0277 21.9993 27.0277H8.36723C7.48581 27.0277 7.03547 25.9701 7.6463 25.3347L31.2784 0.750352C31.6719 0.341028 32.3268 0.341029 32.7203 0.750353L56.3524 25.3347Z"/>
</mask>
<path d="M31.2784 0.750352L28.3947 -2.02167L31.2784 0.750352ZM32.7203 0.750353L35.604 -2.02167L32.7203 0.750353ZM7.6463 25.3347L4.76257 22.5627L7.6463 25.3347ZM56.3524 25.3347L59.2361 22.5627L56.3524 25.3347ZM55.6314 27.0277V23.0277H41.9993V27.0277V31.0277H55.6314V27.0277ZM40.9993 28.0277H36.9993V46.7699H40.9993H44.9993V28.0277H40.9993ZM39.9993 47.7699V43.7699H23.9993V47.7699V51.7699H39.9993V47.7699ZM22.9993 46.7699H26.9993V28.0277H22.9993H18.9993V46.7699H22.9993ZM21.9993 27.0277V23.0277H8.36723V27.0277V31.0277H21.9993V27.0277ZM7.6463 25.3347L10.53 28.1067L34.1621 3.52238L31.2784 0.750352L28.3947 -2.02167L4.76257 22.5627L7.6463 25.3347ZM32.7203 0.750353L29.8365 3.52238L53.4686 28.1067L56.3524 25.3347L59.2361 22.5627L35.604 -2.02167L32.7203 0.750353ZM31.2784 0.750352L34.1621 3.52238C32.9817 4.75036 31.0169 4.75035 29.8365 3.52238L32.7203 0.750353L35.604 -2.02167C33.6366 -4.06829 30.362 -4.0683 28.3947 -2.02167L31.2784 0.750352ZM8.36723 27.0277V23.0277C11.0115 23.0277 12.3625 26.2004 10.53 28.1067L7.6463 25.3347L4.76257 22.5627C1.70844 25.7399 3.96016 31.0277 8.36723 31.0277V27.0277ZM22.9993 28.0277H26.9993C26.9993 25.2663 24.7608 23.0277 21.9993 23.0277V27.0277V31.0277C20.3425 31.0277 18.9993 29.6846 18.9993 28.0277H22.9993ZM23.9993 47.7699V43.7699C25.6562 43.7699 26.9993 45.113 26.9993 46.7699H22.9993H18.9993C18.9993 49.5313 21.2379 51.7699 23.9993 51.7699V47.7699ZM40.9993 46.7699H36.9993C36.9993 45.113 38.3425 43.7699 39.9993 43.7699V47.7699V51.7699C42.7608 51.7699 44.9993 49.5313 44.9993 46.7699H40.9993ZM41.9993 27.0277V23.0277C39.2379 23.0277 36.9993 25.2663 36.9993 28.0277H40.9993H44.9993C44.9993 29.6846 43.6562 31.0277 41.9993 31.0277V27.0277ZM55.6314 27.0277V31.0277C60.0385 31.0277 62.2902 25.7399 59.2361 22.5627L56.3524 25.3347L53.4686 28.1067C51.6362 26.2004 52.9872 23.0277 55.6314 23.0277V27.0277Z" fill="#CCCCCC" mask="url(#path-3-inside-2_368_208)"/>
</svg>
