<svg width="64" height="66" viewBox="0 0 64 66" fill="none" xmlns="http://www.w3.org/2000/svg">
<mask id="path-1-inside-1_368_213" fill="white">
<path d="M16.5928 48.0566C16.5928 49.1612 17.4882 50.0566 18.5928 50.0566H45.4082C46.5128 50.0566 47.4082 49.1612 47.4082 48.0566V40.5566C47.4082 39.4521 48.3036 38.5566 49.4082 38.5566H62.001C63.1055 38.5566 64.001 39.4521 64.001 40.5566V63.9795C64.001 65.0841 63.1055 65.9795 62.001 65.9795H2.00098C0.896407 65.9795 0.000976562 65.0841 0.000976562 63.9795V61.5571C0.000976562 61.5569 0.000757952 61.5566 0.000488281 61.5566V61.5566C0.000218611 61.5566 0 61.5564 0 61.5562V40.5566C0 39.4521 0.895431 38.5566 2 38.5566H14.5928C15.6973 38.5566 16.5928 39.4521 16.5928 40.5566V48.0566Z"/>
</mask>
<path d="M16.5928 48.0566C16.5928 49.1612 17.4882 50.0566 18.5928 50.0566H45.4082C46.5128 50.0566 47.4082 49.1612 47.4082 48.0566V40.5566C47.4082 39.4521 48.3036 38.5566 49.4082 38.5566H62.001C63.1055 38.5566 64.001 39.4521 64.001 40.5566V63.9795C64.001 65.0841 63.1055 65.9795 62.001 65.9795H2.00098C0.896407 65.9795 0.000976562 65.0841 0.000976562 63.9795V61.5571C0.000976562 61.5569 0.000757952 61.5566 0.000488281 61.5566V61.5566C0.000218611 61.5566 0 61.5564 0 61.5562V40.5566C0 39.4521 0.895431 38.5566 2 38.5566H14.5928C15.6973 38.5566 16.5928 39.4521 16.5928 40.5566V48.0566Z" fill="#FF2C68"/>
<path d="M18.5928 50.0566V54.0566H45.4082V50.0566V46.0566H18.5928V50.0566ZM47.4082 48.0566H51.4082V40.5566H47.4082H43.4082V48.0566H47.4082ZM49.4082 38.5566V42.5566H62.001V38.5566V34.5566H49.4082V38.5566ZM64.001 40.5566H60.001V63.9795H64.001H68.001V40.5566H64.001ZM62.001 65.9795V61.9795H2.00098V65.9795V69.9795H62.001V65.9795ZM0.000976562 63.9795H4.00098V61.5571H0.000976562H-3.99902V63.9795H0.000976562ZM0 61.5562H4V40.5566H0H-4V61.5562H0ZM2 38.5566V42.5566H14.5928V38.5566V34.5566H2V38.5566ZM16.5928 40.5566H12.5928V48.0566H16.5928H20.5928V40.5566H16.5928ZM14.5928 38.5566V42.5566C13.4882 42.5566 12.5928 41.6612 12.5928 40.5566H16.5928H20.5928C20.5928 37.2429 17.9065 34.5566 14.5928 34.5566V38.5566ZM0 40.5566H4C4 41.6612 3.10457 42.5566 2 42.5566V38.5566V34.5566C-1.31371 34.5566 -4 37.2429 -4 40.5566H0ZM0.000488281 61.5566V57.5566C2.20936 57.5566 4 59.3473 4 61.5562H0H-4C-4 63.7656 -2.20892 65.5566 0.000488281 65.5566V61.5566ZM0.000976562 61.5571H4.00098C4.00098 59.3472 2.20934 57.5566 0.000488281 57.5566V61.5566V65.5566C-2.20782 65.5566 -3.99902 63.7666 -3.99902 61.5571H0.000976562ZM2.00098 65.9795V61.9795C3.10555 61.9795 4.00098 62.8749 4.00098 63.9795H0.000976562H-3.99902C-3.99902 67.2932 -1.31273 69.9795 2.00098 69.9795V65.9795ZM64.001 63.9795H60.001C60.001 62.8749 60.8964 61.9795 62.001 61.9795V65.9795V69.9795C65.3147 69.9795 68.001 67.2932 68.001 63.9795H64.001ZM62.001 38.5566V42.5566C60.8964 42.5566 60.001 41.6612 60.001 40.5566H64.001H68.001C68.001 37.2429 65.3147 34.5566 62.001 34.5566V38.5566ZM47.4082 40.5566H51.4082C51.4082 41.6612 50.5128 42.5566 49.4082 42.5566V38.5566V34.5566C46.0945 34.5566 43.4082 37.2429 43.4082 40.5566H47.4082ZM45.4082 50.0566V54.0566C48.7219 54.0566 51.4082 51.3703 51.4082 48.0566H47.4082H43.4082C43.4082 46.9521 44.3036 46.0566 45.4082 46.0566V50.0566ZM18.5928 50.0566V46.0566C19.6973 46.0566 20.5928 46.9521 20.5928 48.0566H16.5928H12.5928C12.5928 51.3703 15.2791 54.0566 18.5928 54.0566V50.0566Z" fill="#FF2C68" mask="url(#path-1-inside-1_368_213)"/>
<mask id="path-3-inside-2_368_213" fill="white">
<path d="M56.3533 24.8914C56.9641 25.5268 56.5138 26.5844 55.6324 26.5844H42.0003C41.448 26.5844 41.0003 27.0321 41.0003 27.5844V46.3256C41.0003 46.8779 40.5525 47.3256 40.0003 47.3256H24.0003C23.448 47.3256 23.0003 46.8779 23.0003 46.3256V27.5844C23.0003 27.0321 22.5525 26.5844 22.0003 26.5844H8.36723C7.4858 26.5844 7.03546 25.5268 7.64631 24.8913L31.2793 0.30698C31.6728 -0.102331 32.3277 -0.102326 32.7212 0.306993L56.3533 24.8914Z"/>
</mask>
<path d="M56.3533 24.8914C56.9641 25.5268 56.5138 26.5844 55.6324 26.5844H42.0003C41.448 26.5844 41.0003 27.0321 41.0003 27.5844V46.3256C41.0003 46.8779 40.5525 47.3256 40.0003 47.3256H24.0003C23.448 47.3256 23.0003 46.8779 23.0003 46.3256V27.5844C23.0003 27.0321 22.5525 26.5844 22.0003 26.5844H8.36723C7.4858 26.5844 7.03546 25.5268 7.64631 24.8913L31.2793 0.30698C31.6728 -0.102331 32.3277 -0.102326 32.7212 0.306993L56.3533 24.8914Z" fill="#FF2C68"/>
<path d="M31.2793 0.30698L28.3956 -2.4651L31.2793 0.30698ZM32.7212 0.306993L35.6049 -2.46503L32.7212 0.306993ZM7.64631 24.8913L4.76264 22.1193L7.64631 24.8913ZM56.3533 24.8914L59.237 22.1193L56.3533 24.8914ZM55.6324 26.5844V22.5844H42.0003V26.5844V30.5844H55.6324V26.5844ZM41.0003 27.5844H37.0003V46.3256H41.0003H45.0003V27.5844H41.0003ZM40.0003 47.3256V43.3256H24.0003V47.3256V51.3256H40.0003V47.3256ZM23.0003 46.3256H27.0003V27.5844H23.0003H19.0003V46.3256H23.0003ZM22.0003 26.5844V22.5844H8.36723V26.5844V30.5844H22.0003V26.5844ZM7.64631 24.8913L10.53 27.6634L34.163 3.07906L31.2793 0.30698L28.3956 -2.4651L4.76264 22.1193L7.64631 24.8913ZM32.7212 0.306993L29.8374 3.07902L53.4696 27.6634L56.3533 24.8914L59.237 22.1193L35.6049 -2.46503L32.7212 0.306993ZM31.2793 0.30698L34.163 3.07906C32.9826 4.30699 31.0178 4.30698 29.8374 3.07902L32.7212 0.306993L35.6049 -2.46503C33.6376 -4.51164 30.363 -4.51165 28.3956 -2.4651L31.2793 0.30698ZM8.36723 26.5844V22.5844C11.0115 22.5844 12.3625 25.7571 10.53 27.6634L7.64631 24.8913L4.76264 22.1193C1.70842 25.2964 3.9601 30.5844 8.36723 30.5844V26.5844ZM23.0003 27.5844H27.0003C27.0003 24.8229 24.7617 22.5844 22.0003 22.5844V26.5844V30.5844C20.3434 30.5844 19.0003 29.2412 19.0003 27.5844H23.0003ZM24.0003 47.3256V43.3256C25.6571 43.3256 27.0003 44.6687 27.0003 46.3256H23.0003H19.0003C19.0003 49.087 21.2388 51.3256 24.0003 51.3256V47.3256ZM41.0003 46.3256H37.0003C37.0003 44.6687 38.3434 43.3256 40.0003 43.3256V47.3256V51.3256C42.7617 51.3256 45.0003 49.087 45.0003 46.3256H41.0003ZM42.0003 26.5844V22.5844C39.2388 22.5844 37.0003 24.8229 37.0003 27.5844H41.0003H45.0003C45.0003 29.2412 43.6571 30.5844 42.0003 30.5844V26.5844ZM55.6324 26.5844V30.5844C60.0394 30.5844 62.2911 25.2965 59.237 22.1193L56.3533 24.8914L53.4696 27.6634C51.6371 25.7571 52.9881 22.5844 55.6324 22.5844V26.5844Z" fill="#FF2C68" mask="url(#path-3-inside-2_368_213)"/>
</svg>
