<svg width="69" height="69" viewBox="0 0 69 69" fill="none" xmlns="http://www.w3.org/2000/svg">
<path d="M34.5 0C53.5538 0 69 15.4462 69 34.5C69 53.5538 53.5538 69 34.5 69C15.4462 69 0 53.5538 0 34.5C0 15.4462 15.4462 0 34.5 0ZM34.5 26C29.8056 26 26 29.8056 26 34.5C26 39.1944 29.8056 43 34.5 43C39.1944 43 43 39.1944 43 34.5C43 29.8056 39.1944 26 34.5 26Z" fill="#AFAFAF"/>
<path d="M39 12.0108C45.3333 11.7836 58 15.0635 58 30" stroke="white" stroke-width="4" stroke-linecap="round" stroke-linejoin="round"/>
<path d="M39 19.0072C43 18.8558 51 21.0423 51 31" stroke="white" stroke-width="4" stroke-linecap="round" stroke-linejoin="round"/>
</svg>
