<svg width="69" height="69" viewBox="0 0 69 69" fill="none" xmlns="http://www.w3.org/2000/svg">
<path d="M34.5 0C53.5538 0 69 15.4462 69 34.5C69 53.5538 53.5538 69 34.5 69C15.4462 69 0 53.5538 0 34.5C0 15.4462 15.4462 0 34.5 0ZM34.5 26C29.8056 26 26 29.8056 26 34.5C26 39.1944 29.8056 43 34.5 43C39.1944 43 43 39.1944 43 34.5C43 29.8056 39.1944 26 34.5 26Z" fill="#FF2C68"/>
<path d="M38 13.0108C44.3333 12.7836 57 16.0635 57 31" stroke="white" stroke-width="4" stroke-linecap="round" stroke-linejoin="round"/>
<path d="M38 20.0072C42 19.8558 50 22.0423 50 32" stroke="white" stroke-width="4" stroke-linecap="round" stroke-linejoin="round"/>
</svg>
