<svg width="72" height="67" viewBox="0 0 72 67" fill="none" xmlns="http://www.w3.org/2000/svg">
<circle cx="36.53" cy="36.675" r="25.0749" fill="#FF2C68" stroke="#FF2C68" stroke-width="4"/>
<path d="M36.5293 21.3325V35.7725L44.6518 43.8949" stroke="white" stroke-width="6" stroke-linecap="round"/>
<path d="M9.14029 7.64198C2.32971 13.3044 5.45492 20.2724 8.51962 23.5849C10.4014 19.8731 16.2485 11.7044 24.5825 8.72466C22.0635 6.00214 15.9509 1.97956 9.14029 7.64198Z" fill="#FF2C68" stroke="#FF2C68" stroke-width="4" stroke-linecap="round" stroke-linejoin="round"/>
<path d="M63.7035 7.64198C70.514 13.3044 67.3888 20.2724 64.3241 23.5849C62.5569 19.8731 56.8702 11.7044 48.2612 8.72466C50.7802 6.00214 56.8929 1.97956 63.7035 7.64198Z" fill="#FF2C68" stroke="#FF2C68" stroke-width="4" stroke-linecap="round" stroke-linejoin="round"/>
<path d="M12.1927 62.0224C11.1671 63.3237 11.3905 65.21 12.6918 66.2356C13.9931 67.2612 15.8794 67.0377 16.905 65.7364L12.1927 62.0224ZM14.5488 63.8794L16.905 65.7364L22.5956 58.5162L20.2394 56.6592L17.8833 54.8022L12.1927 62.0224L14.5488 63.8794Z" fill="#FF2C68"/>
<path d="M60.821 62.0224C61.8466 63.3237 61.6231 65.21 60.3218 66.2356C59.0206 67.2612 57.1343 67.0377 56.1087 65.7364L60.821 62.0224ZM58.4648 63.8794L56.1087 65.7364L50.4181 58.5162L52.7743 56.6592L55.1304 54.8022L60.821 62.0224L58.4648 63.8794Z" fill="#FF2C68"/>
</svg>
