<svg width="62" height="76" viewBox="0 0 62 76" fill="none" xmlns="http://www.w3.org/2000/svg">
<path d="M2.90063 48.7334C3.58877 65.8102 20.0277 74 30.8555 74C38.5963 74 43.7124 71.972 49.7794 67.4655C62.682 57.8817 60.0543 37.9879 55.6101 30.437C56.1835 31.7439 54.5103 35.2289 52.3599 35.6645C48.0477 36.5381 49.5194 27.2 45.4589 18.9714C40.7775 9.4845 33.274 5.19462 26.6794 2C30.5501 17.2471 19.6732 37.4071 14.5122 40.0208C10.3833 42.1119 8.77822 34.5029 8.49177 30.437C6.34133 32.4699 2.21249 38.9753 2.90063 48.7334Z" fill="#FF2C68" stroke="#FF2C68" stroke-width="4" stroke-linejoin="round"/>
<path d="M23.7404 50.2594C29.0807 46.121 30.7125 41.0107 30.8609 38.9729C49.1074 57.7837 41.0966 67.1891 30.8609 67.1891C20.6251 67.1891 17.0649 55.4324 23.7404 50.2594Z" fill="white"/>
</svg>
