<svg width="40" height="35" viewBox="0 0 40 35" fill="none" xmlns="http://www.w3.org/2000/svg">
<path d="M20.006 34.5114L3.57844 18.0838C2.26807 16.7734 1.39449 15.25 0.957697 13.5135C0.531561 11.777 0.536888 10.0511 0.973677 8.33594C1.41047 6.61008 2.27872 5.10795 3.57844 3.82954C4.91011 2.51917 6.42822 1.65092 8.13277 1.22479C9.84797 0.787997 11.5578 0.787997 13.2624 1.22479C14.9776 1.66158 16.501 2.52983 17.8327 3.82954L20.006 5.93892L22.1793 3.82954C23.5216 2.52983 25.0451 1.66158 26.7496 1.22479C28.4541 0.787997 30.1587 0.787997 31.8632 1.22479C33.5784 1.65092 35.1019 2.51917 36.4336 3.82954C37.7333 5.10795 38.6015 6.61008 39.0383 8.33594C39.4751 10.0511 39.4751 11.777 39.0383 13.5135C38.6122 15.25 37.7439 16.7734 36.4336 18.0838L20.006 34.5114Z" fill="#A3A8AE"/>
</svg>
