<svg width="78" height="69" viewBox="0 0 78 69" fill="none" xmlns="http://www.w3.org/2000/svg">
<mask id="path-1-inside-1_387_400" fill="white">
<path d="M77.1386 36.0163C77.957 36.8031 77.957 38.1126 77.1387 38.8995L70.654 45.1355C69.8798 45.88 68.6557 45.8801 67.8815 45.1356L67.239 44.5177C65.9682 43.2958 63.8527 44.1964 63.8527 45.9594V66.6473C63.8527 67.7519 62.9573 68.6473 61.8527 68.6473H45.552C44.4474 68.6473 43.552 67.7519 43.552 66.6473V54.6805C43.552 53.5759 42.6565 52.6805 41.552 52.6805H35.8332C34.7286 52.6805 33.8332 53.5759 33.8332 54.6805V66.6473C33.8332 67.7519 32.9378 68.6473 31.8332 68.6473H15.51C14.4054 68.6473 13.51 67.7519 13.51 66.6473V46.3348C13.51 44.5717 11.3944 43.6711 10.1236 44.8932L9.87178 45.1354C9.09757 45.88 7.87348 45.8801 7.09921 45.1356L0.613776 38.8995C-0.204595 38.1126 -0.204591 36.8031 0.613783 36.0162L37.49 0.558334C38.2642 -0.186111 39.4882 -0.186111 40.2624 0.558334L77.1386 36.0163Z"/>
</mask>
<path d="M77.1386 36.0163C77.957 36.8031 77.957 38.1126 77.1387 38.8995L70.654 45.1355C69.8798 45.88 68.6557 45.8801 67.8815 45.1356L67.239 44.5177C65.9682 43.2958 63.8527 44.1964 63.8527 45.9594V66.6473C63.8527 67.7519 62.9573 68.6473 61.8527 68.6473H45.552C44.4474 68.6473 43.552 67.7519 43.552 66.6473V54.6805C43.552 53.5759 42.6565 52.6805 41.552 52.6805H35.8332C34.7286 52.6805 33.8332 53.5759 33.8332 54.6805V66.6473C33.8332 67.7519 32.9378 68.6473 31.8332 68.6473H15.51C14.4054 68.6473 13.51 67.7519 13.51 66.6473V46.3348C13.51 44.5717 11.3944 43.6711 10.1236 44.8932L9.87178 45.1354C9.09757 45.88 7.87348 45.8801 7.09921 45.1356L0.613776 38.8995C-0.204595 38.1126 -0.204591 36.8031 0.613783 36.0162L37.49 0.558334C38.2642 -0.186111 39.4882 -0.186111 40.2624 0.558334L77.1386 36.0163Z" fill="#AFAFAF"/>
<path d="M37.49 0.558334L34.7175 -2.325L37.49 0.558334ZM40.2624 0.558334L37.49 3.44167L40.2624 0.558334ZM0.613776 38.8995L-2.15867 41.7828L0.613776 38.8995ZM9.87178 45.1354L7.09909 42.2524L9.87178 45.1354ZM7.09921 45.1356L4.32676 48.0189L7.09921 45.1356ZM10.1236 44.8932L12.8963 47.7763L10.1236 44.8932ZM67.239 44.5177L64.4665 47.401L67.239 44.5177ZM70.654 45.1355L67.8814 42.2523L70.654 45.1355ZM77.1387 38.8995L74.3661 36.0163L77.1387 38.8995ZM77.1386 36.0163L79.9111 33.1329L77.1386 36.0163ZM77.1387 38.8995L74.3661 36.0163L67.8814 42.2523L70.654 45.1355L73.4266 48.0187L79.9113 41.7827L77.1387 38.8995ZM67.8815 45.1356L70.654 42.2523L70.0115 41.6345L67.239 44.5177L64.4665 47.401L65.109 48.0188L67.8815 45.1356ZM63.8527 45.9594H59.8527V66.6473H63.8527H67.8527V45.9594H63.8527ZM61.8527 68.6473V64.6473H45.552V68.6473V72.6473H61.8527V68.6473ZM43.552 66.6473H47.552V54.6805H43.552H39.552V66.6473H43.552ZM41.552 52.6805V48.6805H35.8332V52.6805V56.6805H41.552V52.6805ZM33.8332 54.6805H29.8332V66.6473H33.8332H37.8332V54.6805H33.8332ZM31.8332 68.6473V64.6473H15.51V68.6473V72.6473H31.8332V68.6473ZM13.51 66.6473H17.51V46.3348H13.51H9.50996V66.6473H13.51ZM10.1236 44.8932L7.35093 42.0102L7.09909 42.2524L9.87178 45.1354L12.6445 48.0185L12.8963 47.7763L10.1236 44.8932ZM7.09921 45.1356L9.87166 42.2522L3.38622 36.0162L0.613776 38.8995L-2.15867 41.7828L4.32676 48.0189L7.09921 45.1356ZM0.613783 36.0162L3.38622 38.8995L40.2624 3.44167L37.49 0.558334L34.7175 -2.325L-2.15865 33.1329L0.613783 36.0162ZM40.2624 0.558334L37.49 3.44167L74.3662 38.8996L77.1386 36.0163L79.9111 33.1329L43.0348 -2.325L40.2624 0.558334ZM37.49 0.558334L40.2624 3.44167C39.4882 4.18611 38.2642 4.18611 37.49 3.44167L40.2624 0.558334L43.0348 -2.325C40.7122 -4.55833 37.0402 -4.55833 34.7175 -2.325L37.49 0.558334ZM0.613776 38.8995L3.38622 36.0162C4.2046 36.8031 4.20459 38.1126 3.38622 38.8995L0.613783 36.0162L-2.15865 33.1329C-4.61377 35.4936 -4.61379 39.4221 -2.15867 41.7828L0.613776 38.8995ZM9.87178 45.1354L7.09909 42.2524C7.87329 41.5078 9.09738 41.5077 9.87166 42.2522L7.09921 45.1356L4.32676 48.0189C6.64958 50.2524 10.3218 50.2522 12.6445 48.0185L9.87178 45.1354ZM13.51 46.3348H17.51C17.51 41.0456 11.1632 38.3439 7.35093 42.0102L10.1236 44.8932L12.8963 47.7763C11.6256 48.9984 9.50996 48.0978 9.50996 46.3348H13.51ZM15.51 68.6473V64.6473C16.6145 64.6473 17.51 65.5427 17.51 66.6473H13.51H9.50996C9.50996 69.961 12.1963 72.6473 15.51 72.6473V68.6473ZM33.8332 66.6473H29.8332C29.8332 65.5427 30.7286 64.6473 31.8332 64.6473V68.6473V72.6473C35.1469 72.6473 37.8332 69.961 37.8332 66.6473H33.8332ZM35.8332 52.6805V48.6805C32.5195 48.6805 29.8332 51.3668 29.8332 54.6805H33.8332H37.8332C37.8332 55.7851 36.9378 56.6805 35.8332 56.6805V52.6805ZM43.552 54.6805H47.552C47.552 51.3668 44.8657 48.6805 41.552 48.6805V52.6805V56.6805C40.4474 56.6805 39.552 55.7851 39.552 54.6805H43.552ZM45.552 68.6473V64.6473C46.6565 64.6473 47.552 65.5427 47.552 66.6473H43.552H39.552C39.552 69.961 42.2382 72.6473 45.552 72.6473V68.6473ZM63.8527 66.6473H59.8527C59.8527 65.5427 60.7482 64.6473 61.8527 64.6473V68.6473V72.6473C65.1664 72.6473 67.8527 69.961 67.8527 66.6473H63.8527ZM67.239 44.5177L70.0115 41.6345C66.1991 37.9686 59.8527 40.6704 59.8527 45.9594H63.8527H67.8527C67.8527 47.7224 65.7373 48.623 64.4665 47.401L67.239 44.5177ZM70.654 45.1355L67.8814 42.2523C68.6557 41.5078 69.8797 41.5078 70.654 42.2523L67.8815 45.1356L65.109 48.0188C67.4317 50.2523 71.1039 50.2523 73.4266 48.0187L70.654 45.1355ZM77.1387 38.8995L79.9113 41.7827C82.3662 39.422 82.3661 35.4935 79.9111 33.1329L77.1386 36.0163L74.3662 38.8996C73.5479 38.1127 73.5478 36.8033 74.3661 36.0163L77.1387 38.8995Z" fill="#AFAFAF" mask="url(#path-1-inside-1_387_400)"/>
</svg>
