<svg width="80" height="70" viewBox="0 0 80 70" fill="none" xmlns="http://www.w3.org/2000/svg">
<mask id="path-1-inside-1_363_32" fill="white">
<path d="M79.5234 38.2324L70.1533 47.2432L64.7383 42.0361V69.4219H44.4375V53.4551H34.7188V69.4219H14.3955V42.4111L9.37109 47.2432L0 38.2324L39.7617 0L79.5234 38.2324Z"/>
</mask>
<path d="M79.5234 38.2324L82.296 41.1156C83.0803 40.3614 83.5235 39.3203 83.5234 38.2323C83.5234 37.1443 83.0802 36.1032 82.2959 35.3491L79.5234 38.2324ZM70.1533 47.2432L67.3808 50.1264C68.9293 51.6154 71.3775 51.6154 72.9259 50.1263L70.1533 47.2432ZM64.7383 42.0361L67.5108 39.1529C66.3549 38.0414 64.6469 37.7276 63.1714 38.3558C61.696 38.9839 60.7383 40.4325 60.7383 42.0361H64.7383ZM64.7383 69.4219V73.4219C66.9474 73.4219 68.7383 71.631 68.7383 69.4219H64.7383ZM44.4375 69.4219H40.4375C40.4375 71.631 42.2284 73.4219 44.4375 73.4219V69.4219ZM44.4375 53.4551H48.4375C48.4375 51.2459 46.6466 49.4551 44.4375 49.4551V53.4551ZM34.7188 53.4551V49.4551C32.5096 49.4551 30.7188 51.2459 30.7188 53.4551H34.7188ZM34.7188 69.4219V73.4219C36.9279 73.4219 38.7188 71.631 38.7188 69.4219H34.7188ZM14.3955 69.4219H10.3955C10.3955 71.631 12.1864 73.4219 14.3955 73.4219V69.4219ZM14.3955 42.4111H18.3955C18.3955 40.8075 17.4378 39.3588 15.9622 38.7307C14.4867 38.1026 12.7787 38.4164 11.6228 39.528L14.3955 42.4111ZM9.37109 47.2432L6.59865 50.1265C8.14719 51.6155 10.5954 51.6154 12.1438 50.1262L9.37109 47.2432ZM0 38.2324L-2.77243 35.3491C-3.55675 36.1032 -4 37.1443 -4 38.2324C-4 39.3205 -3.55676 40.3616 -2.77245 41.1157L0 38.2324ZM39.7617 0L42.5342 -2.88333C40.9857 -4.37222 38.5377 -4.37222 36.9893 -2.88333L39.7617 0ZM79.5234 38.2324L76.7508 35.3492L67.3807 44.36L70.1533 47.2432L72.9259 50.1263L82.296 41.1156L79.5234 38.2324ZM70.1533 47.2432L72.9258 44.3599L67.5108 39.1529L64.7383 42.0361L61.9658 44.9194L67.3808 50.1264L70.1533 47.2432ZM64.7383 42.0361H60.7383V69.4219H64.7383H68.7383V42.0361H64.7383ZM64.7383 69.4219V65.4219H44.4375V69.4219V73.4219H64.7383V69.4219ZM44.4375 69.4219H48.4375V53.4551H44.4375H40.4375V69.4219H44.4375ZM44.4375 53.4551V49.4551H34.7188V53.4551V57.4551H44.4375V53.4551ZM34.7188 53.4551H30.7188V69.4219H34.7188H38.7188V53.4551H34.7188ZM34.7188 69.4219V65.4219H14.3955V69.4219V73.4219H34.7188V69.4219ZM14.3955 69.4219H18.3955V42.4111H14.3955H10.3955V69.4219H14.3955ZM14.3955 42.4111L11.6228 39.528L6.5984 44.3601L9.37109 47.2432L12.1438 50.1262L17.1682 45.2942L14.3955 42.4111ZM9.37109 47.2432L12.1435 44.3598L2.77245 35.3491L0 38.2324L-2.77245 41.1157L6.59865 50.1265L9.37109 47.2432ZM0 38.2324L2.77243 41.1158L42.5342 2.88333L39.7617 0L36.9893 -2.88333L-2.77243 35.3491L0 38.2324ZM39.7617 0L36.9893 2.88333L76.751 41.1158L79.5234 38.2324L82.2959 35.3491L42.5342 -2.88333L39.7617 0Z" fill="#FF2C68" mask="url(#path-1-inside-1_363_32)"/>
</svg>
